# Blender 4.2.1 LTS
# www.blender.org
mtllib two.mtl
o right-hand.001
v -6.192251 0.020107 -1.611979
v -4.520108 0.052333 -2.394114
v -6.402297 0.026167 -0.174994
v -6.291728 0.002616 -2.309260
v -7.431144 0.009548 -0.971993
v -7.932496 -0.003098 -1.152215
v -7.785664 0.010659 -0.122644
v -8.755092 -0.004053 -0.149413
v -7.867517 0.008326 0.678295
v -6.810380 0.015820 1.209705
v -8.566830 -0.003877 0.803389
v -7.329928 -0.001810 1.826790
v -8.953620 -0.022733 0.842850
v -7.585126 -0.022382 1.942009
v -8.565738 -0.041590 0.803371
v -9.141256 -0.022733 -0.186705
v -8.180424 -0.022733 -1.255491
v -8.754848 -0.041413 -0.149417
v -7.932413 -0.042368 -1.152216
v -7.784510 -0.056127 -0.122663
v -7.430616 -0.055014 -0.972001
v -6.399299 -0.069044 -0.165892
v -7.865404 -0.053794 0.678260
v -6.798489 -0.060297 1.261533
v -5.357227 -0.070429 2.225567
v -7.324440 -0.043003 1.839070
v -5.696274 -0.041008 2.858221
v -5.796312 -0.019915 2.933194
v -5.493406 -0.039359 2.974217
v -5.434283 -0.054935 2.649305
v -5.510261 -0.018494 3.065928
v -5.478120 0.003251 2.887604
v -5.704438 0.002075 2.782218
v -5.315194 0.032648 1.988177
v -5.296588 0.035811 1.885477
v -4.921116 0.067627 -0.185281
v -4.932628 -0.096562 -0.112655
v -4.462811 -0.054456 -2.703861
v -4.322601 -0.028029 -3.477947
v -6.158551 -0.060521 -1.663519
v -6.282713 -0.042672 -2.322790
v -6.384859 -0.019765 -2.471021
v -4.368674 -0.024394 -3.550534
v -4.400740 0.001011 -3.649118
v -4.301609 -0.022135 -3.593955
v -4.279552 0.004978 -3.717013
v -4.317136 0.026500 -3.511112
v -4.410908 0.037848 -2.995036
v -4.411390 0.023800 -3.460095
vn -0.0294 0.9992 -0.0263
vn -0.0202 0.9996 -0.0219
vn -0.0284 0.9993 -0.0258
vn -0.0259 0.9996 -0.0102
vn -0.0115 0.9999 -0.0060
vn -0.0165 0.9998 -0.0103
vn -0.0199 0.9998 -0.0037
vn -0.0190 0.9996 -0.0213
vn -0.0171 0.9998 -0.0109
vn -0.0171 0.9998 -0.0097
vn -0.0151 0.9998 0.0141
vn -0.0075 1.0000 0.0063
vn -0.0110 0.9999 0.0037
vn -0.0105 0.9999 0.0035
vn -0.0193 0.9996 0.0218
vn -0.0153 0.9998 0.0161
vn -0.0475 0.9972 0.0571
vn -0.0485 0.9988 0.0091
vn -0.0479 -0.9972 0.0581
vn -0.0484 -0.9988 0.0091
vn -0.0507 -0.9978 -0.0432
vn -0.0507 0.9978 -0.0432
vn -0.0169 -0.9996 -0.0218
vn -0.0168 -0.9998 -0.0121
vn -0.0204 -0.9998 -0.0013
vn -0.0169 -0.9998 -0.0097
vn -0.0091 -1.0000 0.0031
vn -0.0160 -0.9999 0.0022
vn -0.0087 -0.9999 -0.0063
vn -0.0091 -0.9999 -0.0071
vn -0.0111 -0.9998 -0.0144
vn -0.0098 -0.9999 0.0035
vn -0.0141 -0.9999 0.0057
vn -0.0148 -0.9998 0.0162
vn -0.0150 -0.9999 0.0060
vn -0.0192 -0.9995 0.0253
vn -0.0618 -0.9923 0.1073
vn -0.0879 -0.9788 0.1848
vn -0.0174 -0.9988 0.0447
vn 0.9839 0.0100 0.1786
vn -0.0564 0.9923 0.1105
vn -0.0188 0.9994 0.0293
vn -0.0192 0.9996 0.0222
vn -0.0230 0.9997 0.0007
vn -0.0221 0.9997 0.0072
vn -0.0531 0.9945 0.0898
vn -0.0113 -0.9998 -0.0143
vn -0.0132 -0.9994 -0.0316
vn -0.0137 -0.9994 -0.0311
vn -0.0161 -0.9996 -0.0242
vn -0.0817 -0.9855 -0.1485
vn -0.0589 -0.9945 -0.0862
vn -0.1010 -0.9691 -0.2251
vn 0.0009 -0.9987 -0.0506
vn -0.0863 0.9887 -0.1229
vn -0.0889 0.9900 -0.1096
vn -0.0984 0.9875 -0.1228
vn -0.0449 0.9985 -0.0301
vn -0.0768 0.9910 -0.1096
vn -0.0590 0.9949 -0.0818
vt 0.224410 0.255298
vt 0.207708 0.261384
vt 0.194728 0.261403
vt 0.225651 0.157499
vt 0.245156 0.162918
vt 0.285681 0.232921
vt 0.285031 0.151163
vt 0.262251 0.094475
vt 0.285687 0.074814
vt 0.256926 0.066824
vt 0.284369 0.021316
vt 0.310975 0.031592
vt 0.307913 0.070202
vt 0.323293 0.128475
vt 0.340119 0.099723
vt 0.311802 0.010232
vt 0.343120 0.085614
vt 0.283063 0.000000
vt 0.583017 0.989346
vt 0.583778 0.967958
vt 0.617452 0.900370
vt 0.618943 0.914797
vt 0.553909 0.998867
vt 0.556774 0.977621
vt 0.528495 0.945059
vt 0.532613 0.931494
vt 0.253856 0.053143
vt 0.539816 0.903995
vt 0.561728 0.924178
vt 0.583399 0.929272
vt 0.526145 0.833339
vt 0.566458 0.847811
vt 0.603964 0.870941
vt 0.574363 0.767048
vt 0.636606 0.792285
vt 0.647752 0.796852
vt 0.652237 0.811443
vt 0.653620 0.816992
vt 0.805979 0.630949
vt 0.803935 0.625412
vt 0.804411 0.614248
vt 0.806483 0.615200
vt 0.656251 0.800352
vt 0.489529 0.491182
vt 0.249065 0.495027
vt 0.177232 0.497440
vt 0.166467 0.497979
vt 0.155051 0.500455
vt 0.174163 0.502420
vt 0.222058 0.503456
vt 0.277828 0.504779
vt 0.482817 0.506175
vt 0.674984 0.503270
vt 0.684514 0.502981
vt 0.767979 0.500297
vt 0.784524 0.498311
vt 0.776010 0.496406
vt 0.745854 0.494984
vt 0.706527 0.493569
vt 0.371670 0.184202
vt 0.375522 0.199971
vt 0.370648 0.201780
vt 0.367590 0.189304
vt 0.345812 0.210896
vt 0.342975 0.211937
vt 0.504494 0.739041
vt 0.481213 0.733144
vt 0.483447 0.730667
vt 0.507267 0.839637
vt 0.478050 0.734804
vt 0.502477 0.845123
vt 0.977973 0.352067
vt 0.977804 0.358358
vt 0.975309 0.357505
vt 0.975384 0.354045
vt 0.480269 0.729411
vt 0.189404 0.261997
vt 0.193369 0.266612
vt 0.187594 0.268695
vt 0.221030 0.152364
s 1
usemtl Material.003
f 2/1/1 48/2/1 49/3/1 4/4/2 1/5/3
f 36/6/4 2/1/4 1/5/4 3/7/4
f 1/5/5 5/8/6 7/9/7 3/7/5
f 1/5/3 4/4/2 6/10/8 5/8/8
f 5/8/6 6/10/9 8/11/10 7/9/7
f 7/9/7 8/11/10 11/12/11 9/13/12
f 3/7/13 7/9/7 9/13/12 10/14/14
f 9/13/12 11/12/11 12/15/15 10/14/16
f 11/12/17 13/16/17 14/17/17 12/15/17
f 8/11/18 16/18/18 13/16/18 11/12/18
f 13/19/19 15/20/19 26/21/19 14/22/19
f 16/23/20 18/24/20 15/20/20 13/19/20
f 17/25/21 19/26/21 18/24/21 16/23/21
f 6/10/22 17/27/22 16/18/22 8/11/22
f 19/26/23 21/28/24 20/29/25 18/24/26
f 18/24/26 20/29/25 23/30/27 15/20/28
f 21/28/29 40/31/30 22/32/31 20/29/29
f 20/29/25 22/32/32 24/33/33 23/30/27
f 15/20/34 23/30/34 24/33/34 26/21/34
f 22/32/32 37/34/35 25/35/35 24/33/33
f 26/21/36 24/33/36 25/35/36 30/36/36 27/37/36
f 14/22/37 26/21/37 27/37/37 28/38/37
f 28/39/38 27/40/38 29/41/38 31/42/38
f 30/36/39 29/43/39 27/37/39
s 0
f 37/44/40 38/45/40 39/46/40 45/47/40 46/48/40 47/49/40 48/50/40 2/51/40 36/52/40 35/53/40 34/54/40 32/55/40 31/56/40 29/57/40 30/58/40 25/59/40
s 1
f 28/60/41 31/61/41 32/62/41 33/63/41
f 32/62/42 34/64/42 33/63/42
f 10/14/16 12/15/15 33/63/43 34/64/43 35/65/43
f 35/65/44 36/6/45 3/7/13 10/14/14
f 12/15/46 14/17/46 28/60/46 33/63/46
f 40/31/30 38/66/47 37/34/47 22/32/31
f 43/67/48 39/68/48 38/66/48 40/31/49 41/69/50
f 41/69/50 40/31/49 21/28/24 19/26/23
f 44/70/51 43/67/51 41/69/51 42/71/51
f 42/71/52 41/69/52 19/26/52 17/25/52
f 44/72/53 46/73/53 45/74/53 43/75/53
f 45/76/54 39/68/54 43/67/54
f 44/77/55 49/3/56 47/78/57 46/79/57
f 48/2/58 47/78/58 49/3/58
f 49/3/56 44/77/55 42/80/59 4/4/59
f 4/4/60 42/80/60 17/27/60 6/10/60
