# Blender 4.2.1 LTS
# www.blender.org
mtllib water.mtl
o Cube.003
v 1.000000 0.000000 -1.000000
v 1.000000 -1.000000 -1.000000
v 1.000000 0.000000 1.000000
v 1.000000 -1.000000 1.000000
v -1.000000 0.000000 -1.000000
v -1.000000 -1.000000 -1.000000
v -1.000000 0.000000 1.000000
v -1.000000 -1.000000 1.000000
vn -0.0000 1.0000 -0.0000
vn -0.0000 -0.0000 1.0000
vn -1.0000 -0.0000 -0.0000
vn -0.0000 -1.0000 -0.0000
vn 1.0000 -0.0000 -0.0000
vn -0.0000 -0.0000 -1.0000
vt 0.556235 0.728029
vt 0.515322 0.768942
vt 0.515322 0.728029
vt 0.474409 0.809854
vt 0.474409 0.768942
vt 0.515322 0.646203
vt 0.474409 0.687116
vt 0.474409 0.646203
vt 0.474409 0.728029
vt 0.433496 0.768942
vt 0.433496 0.728029
vt 0.515322 0.687116
vt 0.556235 0.768942
vt 0.515322 0.809854
s 0
usemtl Material.006
f 5/1/1 3/2/1 1/3/1
f 3/2/2 8/4/2 4/5/2
f 7/6/3 6/7/3 8/8/3
f 2/9/4 8/10/4 6/11/4
f 1/3/5 4/5/5 2/9/5
f 5/12/6 2/9/6 6/7/6
f 5/1/1 7/13/1 3/2/1
f 3/2/2 7/14/2 8/4/2
f 7/6/3 5/12/3 6/7/3
f 2/9/4 4/5/4 8/10/4
f 1/3/5 3/2/5 4/5/5
f 5/12/6 1/3/6 2/9/6
