# Blender 4.2.1 LTS
# www.blender.org
mtllib one.mtl
o right-hand
v -4.410338 0.054449 -2.445459
v -4.697632 0.073883 -0.186833
v -2.739915 0.117467 -3.311577
v -3.096987 0.061459 -4.171554
v -4.008271 -0.052830 -2.982723
v -4.733138 -0.100305 -0.105414
v -2.384750 -0.068315 -3.275589
v -2.392308 0.032933 -4.686109
v -1.788675 0.023097 -4.814644
v -1.154000 0.163691 -5.295900
v -3.041481 0.020325 -4.409799
v -2.794122 0.053605 -4.549211
v -1.594441 0.286687 -3.181745
v -0.888319 0.270873 -5.398422
v -0.828813 0.170260 -5.576248
v -0.890790 0.076433 -5.391025
v -0.762879 0.222804 -5.773296
v -0.893374 0.067829 -5.383302
v -1.362330 -0.078135 -3.981815
v -1.378913 -0.081209 -3.932253
v -2.241755 -0.273426 -0.717911
v -1.378922 0.280681 -3.932255
v -1.559218 0.294061 -3.260603
v -1.614005 0.298939 -3.056505
v -2.241768 0.337713 -0.717913
v -2.249702 0.350724 -0.575285
v -2.760696 0.220916 0.179031
v -2.397534 0.442616 2.082458
v -2.406179 0.446932 2.237888
v -2.411433 0.442180 2.222022
v -2.410396 0.444893 2.313694
v -2.500297 0.255558 3.930057
v -2.527422 0.000185 4.417832
v -2.528532 -0.001135 4.437791
v -3.820886 0.062795 2.721103
v -5.270548 0.036155 1.897102
v -4.518656 0.008236 3.334381
v -4.310268 -0.012532 3.622752
v -4.550449 -0.031695 3.513385
v -4.008848 -0.044318 3.700170
v -5.110148 -0.072166 2.390834
v -3.645026 -0.079397 3.777059
v -2.528478 -0.001695 4.436811
v -2.528424 -0.007016 4.435847
v -3.070179 -0.138136 4.144760
v -2.528195 -0.070198 4.431766
v -2.527476 -0.260133 4.418910
v -2.613267 -0.308330 4.371593
v -2.512963 -0.409314 4.158045
v -2.816974 -0.282902 4.183906
v -2.922511 -0.333584 3.245450
v -2.485871 -0.517573 3.671020
v -3.151435 -0.203850 0.487618
v -3.260363 -0.194271 3.550362
v -3.811632 -0.126508 2.840028
v -2.279936 -0.315450 -0.031445
v -4.921061 0.067629 -0.185281
v -4.932572 -0.096563 -0.112653
v -4.462749 -0.054456 -2.703899
v -4.410908 0.037857 -2.994731
v -4.322557 -0.028033 -3.477879
v -4.301545 -0.022132 -3.593995
v -4.317075 0.026502 -3.511146
v -4.279490 0.004980 -3.717048
v -4.520047 0.052334 -2.394143
v -5.510210 -0.018493 3.065952
v -5.315105 0.032655 1.987997
v -5.478068 0.003251 2.887628
v -5.493355 -0.039359 2.974247
v -5.434218 -0.054938 2.649253
v -5.357178 -0.070429 2.225600
v -5.296536 0.035812 1.885500
vn -0.0270 0.9996 -0.0119
vn -0.0615 0.9978 -0.0246
vn -0.0528 0.9979 -0.0361
vn -0.0334 0.9990 -0.0301
vn -0.0308 0.9989 -0.0354
vn -0.0338 -0.9988 -0.0351
vn -0.0249 -0.9971 -0.0714
vn -0.0007 -0.9987 -0.0517
vn -0.2367 -0.8031 -0.5468
vn -0.2662 -0.6852 -0.6780
vn -0.0801 0.9956 -0.0479
vn -0.1402 0.9888 -0.0515
vn -0.4524 0.8791 -0.1500
vn -0.4456 0.8569 -0.2590
vn -0.2668 -0.9053 -0.3307
vn -0.4320 -0.7380 -0.5184
vn 0.9483 -0.0000 0.3173
vn -0.0464 -0.9942 -0.0971
vn -0.1188 -0.9902 -0.0728
vn 0.9658 -0.0000 0.2593
vn -0.5426 0.8236 -0.1653
vn -0.4315 0.8926 -0.1306
vn 0.9985 -0.0000 0.0555
vn -0.3190 0.9465 -0.0494
vn -0.5740 0.8170 -0.0546
vn -0.7033 0.7097 0.0410
vn -0.6449 0.7641 -0.0153
vn -0.1994 0.9780 0.0619
vn -0.0319 0.9973 0.0660
vn -0.0321 0.9988 0.0362
vn -0.0587 0.9980 0.0215
vn -0.2174 -0.8365 0.5030
vn -0.0270 -0.9984 0.0495
vn -0.0779 -0.9940 0.0771
vn -0.4084 -0.5151 0.7536
vn -0.5003 -0.2311 0.8344
vn -0.4552 -0.0618 0.8883
vn 0.2021 -0.8453 0.4946
vn -0.4306 -0.8919 0.1382
vn -0.3785 -0.9154 0.1368
vn -0.2235 -0.9735 -0.0492
vn -0.2247 -0.9744 -0.0049
vn -0.2205 -0.9684 0.1166
vn -0.0581 -0.9983 0.0093
vn -0.0269 0.9996 0.0106
vn -0.0203 0.9997 0.0105
vn -0.0195 -0.9991 -0.0376
vn -0.0249 0.9993 0.0263
vn -0.2366 -0.8653 -0.4419
vn -0.0570 0.9921 0.1119
vn -0.0858 0.9913 -0.0999
vn -0.0861 0.9906 -0.1066
vn -0.0156 -0.9998 0.0086
vn -0.0134 -0.9999 0.0068
vn -0.0280 -0.9991 0.0314
vn -0.9839 -0.0100 -0.1786
vn -0.0110 -0.9998 -0.0188
vn -0.0074 -0.9999 -0.0152
vn -0.1979 -0.8957 0.3982
vt 0.223048 0.261362
vt 0.224409 0.255301
vt 0.285681 0.232924
vt 0.285779 0.245257
vt 0.297472 0.352191
vt 0.200063 0.353678
vt 0.175772 0.334038
vt 0.193368 0.266615
vt 0.207717 0.261384
vt 0.498690 0.713765
vt 0.497574 0.624068
vt 0.599624 0.669476
vt 0.575438 0.756063
vt 0.457467 0.623246
vt 0.456562 0.589885
vt 0.483449 0.730664
vt 0.480268 0.729407
vt 0.462529 0.659260
vt 0.977973 0.521478
vt 0.969179 0.534925
vt 0.968430 0.534778
vt 0.968196 0.488481
vt 0.972053 0.456506
vt 0.973893 0.422524
vt 0.975735 0.435469
vt 0.145876 0.441451
vt 0.165407 0.350789
vt 0.204832 0.416983
vt 0.202681 0.418941
vt 0.184076 0.428973
vt 0.143508 0.456196
vt 0.132997 0.463129
vt 0.963210 0.019062
vt 0.964808 0.013836
vt 0.984456 0.000000
vt 0.977376 0.537984
vt 0.750000 0.519399
vt 0.750000 0.494698
vt 0.753788 0.494904
vt 0.860918 0.504764
vt 0.861508 0.505350
vt 0.875667 0.511741
vt 0.890729 0.515313
vt 0.862074 0.518621
vt 0.444078 0.540036
vt 0.482515 0.567164
vt 0.483849 0.568120
vt 0.571175 0.618403
vt 0.590360 0.621155
vt 0.697761 0.520262
vt 0.681887 0.520579
vt 0.500000 0.523051
vt 0.500000 0.481337
vt 0.208344 0.415897
vt 0.277179 0.380564
vt 0.273258 0.381069
vt 0.493176 0.523531
vt 0.366021 0.522195
vt 0.358585 0.522045
vt 0.354958 0.521689
vt 0.277626 0.504139
vt 0.254290 0.485312
vt 0.253335 0.485165
vt 0.253382 0.485130
vt 0.253428 0.484769
vt 0.253623 0.480468
vt 0.254238 0.467541
vt 0.266719 0.458105
vt 0.290020 0.452110
vt 0.467157 0.476504
vt 0.351316 0.372157
vt 0.355189 0.371373
vt 0.355648 0.371664
vt 0.954563 0.134536
vt 0.976328 0.161631
vt 0.976328 0.163254
vt 0.958226 0.201316
vt 0.357748 0.371421
vt 0.414805 0.364412
vt 0.402060 0.366141
vt 0.367105 0.293284
vt 0.415355 0.364347
vt 0.383612 0.254673
vt 0.391681 0.266123
vt 0.343314 0.213373
vt 0.345807 0.210901
vt 0.370649 0.201783
vt 0.811876 0.451028
vt 0.811927 0.451032
vt 0.808599 0.549132
vt 0.806624 0.562358
vt 0.806066 0.532524
vt 0.642202 0.778801
vt 0.682458 0.719114
vt 0.674909 0.748802
vt 0.656252 0.800350
vt 0.647750 0.796849
vt 0.660638 0.707651
vt 0.686524 0.699163
vt 0.811412 0.451026
vt 0.803246 0.512472
vt 0.799209 0.480854
vt 0.805923 0.451017
vt 0.786772 0.466905
vt 0.785107 0.455716
vt 0.789421 0.450990
vt 0.775739 0.450134
vt 0.693902 0.635684
vt 0.705836 0.637443
vt 0.710033 0.643028
vt 0.703704 0.654077
vt 0.678078 0.659203
vt 0.683321 0.677910
vt 0.699765 0.667839
vt 0.342976 0.211940
vt 0.504493 0.739038
vt 0.975309 0.357509
vt 0.977804 0.358361
vt 0.375523 0.199974
vt 0.187593 0.268698
vt 0.636607 0.792282
vt 0.574363 0.767045
vt 0.249060 0.495027
vt 0.489529 0.491182
vt 0.706530 0.493569
vt 0.745848 0.494983
vt 0.776011 0.496406
vt 0.784525 0.498311
vt 0.767980 0.500297
vt 0.684496 0.502982
vt 0.674985 0.503270
vt 0.482816 0.506176
vt 0.277824 0.504779
vt 0.222086 0.503457
vt 0.174159 0.502420
vt 0.155047 0.500455
vt 0.166462 0.497979
vt 0.177237 0.497440
vt 0.806483 0.615197
vt 0.804411 0.614246
s 1
usemtl Material.003
f 1/1/1 65/2/1 57/3/1 2/4/1
f 1/1/2 2/4/2 27/5/2 3/6/2
f 1/1/3 3/6/3 4/7/3 63/8/3 60/9/3
f 1/1/4 60/9/4 65/2/5
f 5/10/6 7/11/6 53/12/6 6/13/6
f 5/10/7 8/14/7 9/15/7 7/11/7
f 5/10/8 61/16/8 62/17/8 11/18/8 8/14/8
f 10/19/9 16/20/9 18/21/9 9/22/9 8/23/9
f 10/19/10 8/23/10 11/24/10 12/25/10
f 10/26/11 12/27/11 4/7/11 3/6/11
f 10/26/12 3/6/12 27/5/12 13/28/12
f 23/29/13 22/30/13 14/31/13 10/26/13 13/28/13
f 10/26/14 14/31/14 17/32/14
f 17/33/15 15/34/15 10/35/15
f 10/19/16 15/36/16 16/20/16
s 0
f 22/37/17 20/38/17 19/39/17 18/40/17 16/41/17 15/42/17 17/43/17 14/44/17
s 1
f 18/45/18 19/46/18 7/11/18 9/15/18
f 19/46/19 20/47/19 21/48/19 56/49/19 53/12/19 7/11/19
s 0
f 20/38/20 22/37/20 23/50/20 24/51/20 25/52/20 21/53/20
s 1
f 24/54/21 23/29/21 13/28/21
f 26/55/22 25/56/22 24/54/22 13/28/22 27/5/22
s 0
f 21/53/23 25/52/23 26/57/23 28/58/23 29/59/23 31/60/23 32/61/23 33/62/23 34/63/23 43/64/23 44/65/23 46/66/23 47/67/23 49/68/23 52/69/23 56/70/23
s 1
f 28/71/24 26/55/24 27/5/24 30/72/24
f 29/73/25 28/71/25 30/72/25
f 32/74/26 31/75/26 30/76/26 27/77/26
f 31/78/27 29/73/27 30/72/27
f 33/79/28 32/80/28 27/5/28 35/81/28
f 34/82/29 33/79/29 35/81/29 37/83/29 38/84/29
f 36/85/30 67/86/30 68/87/30 37/83/30 35/81/30
f 36/85/31 35/81/31 27/5/31 2/4/31
f 43/88/32 34/89/32 38/90/32 39/91/32 40/92/32
f 41/93/33 40/94/33 39/95/33 69/96/33 70/97/33
f 41/93/34 55/98/34 42/99/34 40/94/34
f 44/100/35 43/88/35 40/92/35 42/101/35 45/102/35
f 46/103/36 44/100/36 45/102/36 50/104/36 48/105/36
f 47/106/37 46/103/37 48/105/37
f 49/107/38 47/106/38 48/105/38
f 52/108/39 49/109/39 48/110/39 50/111/39 51/112/39
f 54/113/40 51/112/40 50/111/40 45/114/40
f 56/49/41 52/108/41 51/112/41 53/12/41
f 54/113/42 55/98/42 53/12/42 51/112/42
f 54/113/43 45/114/43 42/99/43 55/98/43
f 41/93/44 6/13/44 53/12/44 55/98/44
f 2/4/45 57/3/45 72/115/46 36/85/45
f 59/116/47 61/16/47 5/10/47
f 72/115/48 67/86/48 36/85/48
f 62/117/49 64/118/49 12/25/49 11/24/49
f 68/87/50 66/119/50 38/84/50 37/83/50
f 64/120/51 63/8/52 4/7/51 12/27/51
f 71/121/53 58/122/54 6/13/53 41/93/53
f 70/97/55 71/121/55 41/93/55
s 0
f 59/123/56 58/124/56 71/125/56 70/126/56 69/127/56 66/128/56 68/129/56 67/130/56 72/131/56 57/132/56 65/133/56 60/134/56 63/135/56 64/136/56 62/137/56 61/138/56
s 1
f 58/122/57 59/116/58 5/10/57 6/13/57
f 66/139/59 69/140/59 39/91/59 38/90/59
