# Blender 4.2.1 LTS
# www.blender.org
mtllib sand.mtl
o Cube.002
v 1.000000 0.000000 -1.000000
v 1.000000 -1.000000 -1.000000
v 1.000000 0.000000 1.000000
v 1.000000 -1.000000 1.000000
v -1.000000 1.000000 -1.000000
v -1.000000 -1.000000 -1.000000
v -1.000000 1.000000 1.000000
v -1.000000 -1.000000 1.000000
vn 0.4472 0.8944 -0.0000
vn -0.0000 -0.0000 1.0000
vn -1.0000 -0.0000 -0.0000
vn -0.0000 -1.0000 -0.0000
vn 1.0000 -0.0000 -0.0000
vn -0.0000 -0.0000 -1.0000
vt 0.822507 0.742452
vt 0.781594 0.783365
vt 0.781594 0.742452
vt 0.740681 0.824278
vt 0.740681 0.783365
vt 0.781594 0.660626
vt 0.740681 0.701539
vt 0.740681 0.660626
vt 0.740681 0.742452
vt 0.699768 0.783365
vt 0.699768 0.742452
vt 0.822507 0.783365
vt 0.781594 0.824278
vt 0.781594 0.701539
s 0
usemtl Material.005
f 5/1/1 3/2/1 1/3/1
f 3/2/2 8/4/2 4/5/2
f 7/6/3 6/7/3 8/8/3
f 2/9/4 8/10/4 6/11/4
f 1/3/5 4/5/5 2/9/5
f 6/7/6 1/3/6 2/9/6
f 5/1/1 7/12/1 3/2/1
f 3/2/2 7/13/2 8/4/2
f 7/6/3 5/14/3 6/7/3
f 2/9/4 4/5/4 8/10/4
f 1/3/5 3/2/5 4/5/5
f 6/7/6 5/14/6 1/3/6
